<mxfile host="Electron" modified="2023-11-10T10:50:39.204Z" agent="Mozilla/5.0 (Macintosh; Intel Mac OS X 10_15_7) AppleWebKit/537.36 (KHTML, like Gecko) draw.io/22.0.3 Chrome/114.0.5735.289 Electron/25.8.4 Safari/537.36" etag="9_DOmXHyT3SbjdEvSN_-" version="22.0.3" type="device">
  <diagram id="C5RBs43oDa-KdzZeNtuy" name="Page-1">
    <mxGraphModel dx="1434" dy="782" grid="1" gridSize="10" guides="1" tooltips="1" connect="1" arrows="1" fold="1" page="1" pageScale="1" pageWidth="960" pageHeight="509" math="0" shadow="0">
      <root>
        <mxCell id="WIyWlLk6GJQsqaUBKTNV-0" />
        <mxCell id="WIyWlLk6GJQsqaUBKTNV-1" parent="WIyWlLk6GJQsqaUBKTNV-0" />
        <mxCell id="VrE6sZuMcQ_JEsaJTfix-29" value="SymbolsView" style="swimlane;fontStyle=1;align=center;verticalAlign=top;childLayout=stackLayout;horizontal=1;startSize=30;horizontalStack=0;resizeParent=1;resizeParentMax=0;resizeLast=0;collapsible=0;marginBottom=0;whiteSpace=wrap;html=1;" parent="WIyWlLk6GJQsqaUBKTNV-1" vertex="1">
          <mxGeometry x="680" y="80" width="240" height="130" as="geometry" />
        </mxCell>
        <mxCell id="OGeXfidwOHUhbuxbb3Ev-73" value="+ menus: MainMenuBar" style="text;strokeColor=none;fillColor=none;align=left;verticalAlign=middle;spacingLeft=4;spacingRight=4;overflow=hidden;rotatable=0;points=[[0,0.5],[1,0.5]];portConstraint=eastwest;whiteSpace=wrap;html=1;fontSize=11;" parent="VrE6sZuMcQ_JEsaJTfix-29" vertex="1">
          <mxGeometry y="30" width="240" height="20" as="geometry" />
        </mxCell>
        <mxCell id="OGeXfidwOHUhbuxbb3Ev-74" value="+ text: MainTextPane" style="text;strokeColor=none;fillColor=none;align=left;verticalAlign=middle;spacingLeft=4;spacingRight=4;overflow=hidden;rotatable=0;points=[[0,0.5],[1,0.5]];portConstraint=eastwest;whiteSpace=wrap;html=1;fontSize=11;" parent="VrE6sZuMcQ_JEsaJTfix-29" vertex="1">
          <mxGeometry y="50" width="240" height="20" as="geometry" />
        </mxCell>
        <mxCell id="xHtxybSg8a37hnDzmeFo-1" value="+ info: MainListPane" style="text;strokeColor=none;fillColor=none;align=left;verticalAlign=middle;spacingLeft=4;spacingRight=4;overflow=hidden;rotatable=0;points=[[0,0.5],[1,0.5]];portConstraint=eastwest;whiteSpace=wrap;html=1;fontSize=11;" parent="VrE6sZuMcQ_JEsaJTfix-29" vertex="1">
          <mxGeometry y="70" width="240" height="20" as="geometry" />
        </mxCell>
        <mxCell id="VrE6sZuMcQ_JEsaJTfix-32" value="" style="line;strokeWidth=1;fillColor=none;align=left;verticalAlign=middle;spacingTop=-1;spacingLeft=3;spacingRight=3;rotatable=0;labelPosition=right;points=[];portConstraint=eastwest;strokeColor=inherit;" parent="VrE6sZuMcQ_JEsaJTfix-29" vertex="1">
          <mxGeometry y="90" width="240" height="8" as="geometry" />
        </mxCell>
        <mxCell id="VrE6sZuMcQ_JEsaJTfix-33" value="+&amp;nbsp;bindControls(currentSymbols: ObjectProperty&amp;lt;GroupingSymbols&amp;gt;)" style="text;strokeColor=none;fillColor=none;align=left;verticalAlign=middle;spacingLeft=4;spacingRight=4;overflow=hidden;rotatable=0;points=[[0,0.5],[1,0.5]];portConstraint=eastwest;whiteSpace=wrap;html=1;fontSize=11;" parent="VrE6sZuMcQ_JEsaJTfix-29" vertex="1">
          <mxGeometry y="98" width="240" height="32" as="geometry" />
        </mxCell>
        <mxCell id="OGeXfidwOHUhbuxbb3Ev-10" value="MainTextPane" style="swimlane;fontStyle=1;align=center;verticalAlign=top;childLayout=stackLayout;horizontal=1;startSize=30;horizontalStack=0;resizeParent=1;resizeParentMax=0;resizeLast=0;collapsible=0;marginBottom=0;whiteSpace=wrap;html=1;" parent="WIyWlLk6GJQsqaUBKTNV-1" vertex="1">
          <mxGeometry x="360" y="340" width="240" height="50" as="geometry" />
        </mxCell>
        <mxCell id="xHtxybSg8a37hnDzmeFo-5" value="+ area: MenuItem" style="text;strokeColor=none;fillColor=none;align=left;verticalAlign=middle;spacingLeft=4;spacingRight=4;overflow=hidden;rotatable=0;points=[[0,0.5],[1,0.5]];portConstraint=eastwest;whiteSpace=wrap;html=1;fontSize=11;" parent="OGeXfidwOHUhbuxbb3Ev-10" vertex="1">
          <mxGeometry y="30" width="240" height="20" as="geometry" />
        </mxCell>
        <mxCell id="OGeXfidwOHUhbuxbb3Ev-30" value="MainListPane" style="swimlane;fontStyle=1;align=center;verticalAlign=top;childLayout=stackLayout;horizontal=1;startSize=30;horizontalStack=0;resizeParent=1;resizeParentMax=0;resizeLast=0;collapsible=0;marginBottom=0;whiteSpace=wrap;html=1;" parent="WIyWlLk6GJQsqaUBKTNV-1" vertex="1">
          <mxGeometry x="680" y="340" width="240" height="70" as="geometry" />
        </mxCell>
        <mxCell id="OGeXfidwOHUhbuxbb3Ev-31" value="+ list: ListView&amp;lt;String&amp;gt;" style="text;strokeColor=none;fillColor=none;align=left;verticalAlign=middle;spacingLeft=4;spacingRight=4;overflow=hidden;rotatable=0;points=[[0,0.5],[1,0.5]];portConstraint=eastwest;whiteSpace=wrap;html=1;fontSize=11;" parent="OGeXfidwOHUhbuxbb3Ev-30" vertex="1">
          <mxGeometry y="30" width="240" height="20" as="geometry" />
        </mxCell>
        <mxCell id="xHtxybSg8a37hnDzmeFo-4" value="+ placeholder: Hyperlink" style="text;strokeColor=none;fillColor=none;align=left;verticalAlign=middle;spacingLeft=4;spacingRight=4;overflow=hidden;rotatable=0;points=[[0,0.5],[1,0.5]];portConstraint=eastwest;whiteSpace=wrap;html=1;fontSize=11;" parent="OGeXfidwOHUhbuxbb3Ev-30" vertex="1">
          <mxGeometry y="50" width="240" height="20" as="geometry" />
        </mxCell>
        <mxCell id="OGeXfidwOHUhbuxbb3Ev-52" value="MainMenuBar" style="swimlane;fontStyle=1;align=center;verticalAlign=top;childLayout=stackLayout;horizontal=1;startSize=30;horizontalStack=0;resizeParent=1;resizeParentMax=0;resizeLast=0;collapsible=0;marginBottom=0;whiteSpace=wrap;html=1;" parent="WIyWlLk6GJQsqaUBKTNV-1" vertex="1">
          <mxGeometry x="40" y="340" width="240" height="130" as="geometry" />
        </mxCell>
        <mxCell id="OGeXfidwOHUhbuxbb3Ev-53" value="+ open: MenuItem" style="text;strokeColor=none;fillColor=none;align=left;verticalAlign=middle;spacingLeft=4;spacingRight=4;overflow=hidden;rotatable=0;points=[[0,0.5],[1,0.5]];portConstraint=eastwest;whiteSpace=wrap;html=1;fontSize=11;" parent="OGeXfidwOHUhbuxbb3Ev-52" vertex="1">
          <mxGeometry y="30" width="240" height="20" as="geometry" />
        </mxCell>
        <mxCell id="OGeXfidwOHUhbuxbb3Ev-61" value="+ quit: MenuItem" style="text;strokeColor=none;fillColor=none;align=left;verticalAlign=middle;spacingLeft=4;spacingRight=4;overflow=hidden;rotatable=0;points=[[0,0.5],[1,0.5]];portConstraint=eastwest;whiteSpace=wrap;html=1;fontSize=11;" parent="OGeXfidwOHUhbuxbb3Ev-52" vertex="1">
          <mxGeometry y="50" width="240" height="20" as="geometry" />
        </mxCell>
        <mxCell id="OGeXfidwOHUhbuxbb3Ev-71" value="+ minimize: MenuItem" style="text;strokeColor=none;fillColor=none;align=left;verticalAlign=middle;spacingLeft=4;spacingRight=4;overflow=hidden;rotatable=0;points=[[0,0.5],[1,0.5]];portConstraint=eastwest;whiteSpace=wrap;html=1;fontSize=11;" parent="OGeXfidwOHUhbuxbb3Ev-52" vertex="1">
          <mxGeometry y="70" width="240" height="20" as="geometry" />
        </mxCell>
        <mxCell id="xHtxybSg8a37hnDzmeFo-2" value="+ zoom: MenuItem" style="text;strokeColor=none;fillColor=none;align=left;verticalAlign=middle;spacingLeft=4;spacingRight=4;overflow=hidden;rotatable=0;points=[[0,0.5],[1,0.5]];portConstraint=eastwest;whiteSpace=wrap;html=1;fontSize=11;" parent="OGeXfidwOHUhbuxbb3Ev-52" vertex="1">
          <mxGeometry y="90" width="240" height="20" as="geometry" />
        </mxCell>
        <mxCell id="OGeXfidwOHUhbuxbb3Ev-72" value="+ about: MenuItem" style="text;strokeColor=none;fillColor=none;align=left;verticalAlign=middle;spacingLeft=4;spacingRight=4;overflow=hidden;rotatable=0;points=[[0,0.5],[1,0.5]];portConstraint=eastwest;whiteSpace=wrap;html=1;fontSize=11;" parent="OGeXfidwOHUhbuxbb3Ev-52" vertex="1">
          <mxGeometry y="110" width="240" height="20" as="geometry" />
        </mxCell>
        <mxCell id="OGeXfidwOHUhbuxbb3Ev-76" value="App" style="swimlane;fontStyle=1;align=center;verticalAlign=top;childLayout=stackLayout;horizontal=1;startSize=30;horizontalStack=0;resizeParent=1;resizeParentMax=0;resizeLast=0;collapsible=0;marginBottom=0;whiteSpace=wrap;html=1;" parent="WIyWlLk6GJQsqaUBKTNV-1" vertex="1">
          <mxGeometry x="360" y="80" width="240" height="152" as="geometry" />
        </mxCell>
        <mxCell id="OGeXfidwOHUhbuxbb3Ev-77" value="- chooser: FileChooser" style="text;strokeColor=none;fillColor=none;align=left;verticalAlign=middle;spacingLeft=4;spacingRight=4;overflow=hidden;rotatable=0;points=[[0,0.5],[1,0.5]];portConstraint=eastwest;whiteSpace=wrap;html=1;fontSize=11;" parent="OGeXfidwOHUhbuxbb3Ev-76" vertex="1">
          <mxGeometry y="30" width="240" height="20" as="geometry" />
        </mxCell>
        <mxCell id="OGeXfidwOHUhbuxbb3Ev-78" value="- view: SymbolsView" style="text;strokeColor=none;fillColor=none;align=left;verticalAlign=middle;spacingLeft=4;spacingRight=4;overflow=hidden;rotatable=0;points=[[0,0.5],[1,0.5]];portConstraint=eastwest;whiteSpace=wrap;html=1;fontSize=11;" parent="OGeXfidwOHUhbuxbb3Ev-76" vertex="1">
          <mxGeometry y="50" width="240" height="20" as="geometry" />
        </mxCell>
        <mxCell id="OGeXfidwOHUhbuxbb3Ev-79" value="- currentSymbols: ObjectProperty&amp;lt;GroupingSymbols&amp;gt;" style="text;strokeColor=none;fillColor=none;align=left;verticalAlign=middle;spacingLeft=4;spacingRight=4;overflow=hidden;rotatable=0;points=[[0,0.5],[1,0.5]];portConstraint=eastwest;whiteSpace=wrap;html=1;fontSize=11;" parent="OGeXfidwOHUhbuxbb3Ev-76" vertex="1">
          <mxGeometry y="70" width="240" height="30" as="geometry" />
        </mxCell>
        <mxCell id="OGeXfidwOHUhbuxbb3Ev-82" value="" style="line;strokeWidth=1;fillColor=none;align=left;verticalAlign=middle;spacingTop=-1;spacingLeft=3;spacingRight=3;rotatable=0;labelPosition=right;points=[];portConstraint=eastwest;strokeColor=inherit;" parent="OGeXfidwOHUhbuxbb3Ev-76" vertex="1">
          <mxGeometry y="100" width="240" height="8" as="geometry" />
        </mxCell>
        <mxCell id="OGeXfidwOHUhbuxbb3Ev-83" value="+&amp;nbsp;init()" style="text;strokeColor=none;fillColor=none;align=left;verticalAlign=middle;spacingLeft=4;spacingRight=4;overflow=hidden;rotatable=0;points=[[0,0.5],[1,0.5]];portConstraint=eastwest;whiteSpace=wrap;html=1;fontSize=11;" parent="OGeXfidwOHUhbuxbb3Ev-76" vertex="1">
          <mxGeometry y="108" width="240" height="22" as="geometry" />
        </mxCell>
        <mxCell id="OGeXfidwOHUhbuxbb3Ev-84" value="+&amp;nbsp;start(stage: Stage)" style="text;strokeColor=none;fillColor=none;align=left;verticalAlign=middle;spacingLeft=4;spacingRight=4;overflow=hidden;rotatable=0;points=[[0,0.5],[1,0.5]];portConstraint=eastwest;whiteSpace=wrap;html=1;fontSize=11;" parent="OGeXfidwOHUhbuxbb3Ev-76" vertex="1">
          <mxGeometry y="130" width="240" height="22" as="geometry" />
        </mxCell>
        <mxCell id="LklVr9fy3qKQ77MvSfQL-4" style="edgeStyle=orthogonalEdgeStyle;rounded=0;orthogonalLoop=1;jettySize=auto;html=1;exitX=0.25;exitY=0;exitDx=0;exitDy=0;entryX=0.5;entryY=0;entryDx=0;entryDy=0;dashed=1;" edge="1" parent="WIyWlLk6GJQsqaUBKTNV-1" source="xHtxybSg8a37hnDzmeFo-13" target="VrE6sZuMcQ_JEsaJTfix-29">
          <mxGeometry relative="1" as="geometry">
            <Array as="points">
              <mxPoint x="100" y="40" />
              <mxPoint x="800" y="40" />
            </Array>
          </mxGeometry>
        </mxCell>
        <mxCell id="xHtxybSg8a37hnDzmeFo-13" value="Grouping Symbols" style="swimlane;fontStyle=1;align=center;verticalAlign=top;childLayout=stackLayout;horizontal=1;startSize=30;horizontalStack=0;resizeParent=1;resizeParentMax=0;resizeLast=0;collapsible=0;marginBottom=0;whiteSpace=wrap;html=1;" parent="WIyWlLk6GJQsqaUBKTNV-1" vertex="1">
          <mxGeometry x="40" y="80" width="240" height="184" as="geometry" />
        </mxCell>
        <mxCell id="xHtxybSg8a37hnDzmeFo-14" value="- text: String" style="text;strokeColor=none;fillColor=none;align=left;verticalAlign=middle;spacingLeft=4;spacingRight=4;overflow=hidden;rotatable=0;points=[[0,0.5],[1,0.5]];portConstraint=eastwest;whiteSpace=wrap;html=1;fontSize=11;" parent="xHtxybSg8a37hnDzmeFo-13" vertex="1">
          <mxGeometry y="30" width="240" height="20" as="geometry" />
        </mxCell>
        <mxCell id="LklVr9fy3qKQ77MvSfQL-0" value="- stack: Stack&amp;lt;Character&amp;gt;" style="text;strokeColor=none;fillColor=none;align=left;verticalAlign=middle;spacingLeft=4;spacingRight=4;overflow=hidden;rotatable=0;points=[[0,0.5],[1,0.5]];portConstraint=eastwest;whiteSpace=wrap;html=1;fontSize=11;" vertex="1" parent="xHtxybSg8a37hnDzmeFo-13">
          <mxGeometry y="50" width="240" height="20" as="geometry" />
        </mxCell>
        <mxCell id="xHtxybSg8a37hnDzmeFo-15" value="- steps: StringBuilder" style="text;strokeColor=none;fillColor=none;align=left;verticalAlign=middle;spacingLeft=4;spacingRight=4;overflow=hidden;rotatable=0;points=[[0,0.5],[1,0.5]];portConstraint=eastwest;whiteSpace=wrap;html=1;fontSize=11;" parent="xHtxybSg8a37hnDzmeFo-13" vertex="1">
          <mxGeometry y="70" width="240" height="20" as="geometry" />
        </mxCell>
        <mxCell id="LklVr9fy3qKQ77MvSfQL-1" value="+ stackSteps: List&amp;lt;String&amp;gt;" style="text;strokeColor=none;fillColor=none;align=left;verticalAlign=middle;spacingLeft=4;spacingRight=4;overflow=hidden;rotatable=0;points=[[0,0.5],[1,0.5]];portConstraint=eastwest;whiteSpace=wrap;html=1;fontSize=11;" vertex="1" parent="xHtxybSg8a37hnDzmeFo-13">
          <mxGeometry y="90" width="240" height="20" as="geometry" />
        </mxCell>
        <mxCell id="xHtxybSg8a37hnDzmeFo-17" value="" style="line;strokeWidth=1;fillColor=none;align=left;verticalAlign=middle;spacingTop=-1;spacingLeft=3;spacingRight=3;rotatable=0;labelPosition=right;points=[];portConstraint=eastwest;strokeColor=inherit;" parent="xHtxybSg8a37hnDzmeFo-13" vertex="1">
          <mxGeometry y="110" width="240" height="8" as="geometry" />
        </mxCell>
        <mxCell id="xHtxybSg8a37hnDzmeFo-18" value="+&amp;nbsp;GroupingSymbols(text: String)" style="text;strokeColor=none;fillColor=none;align=left;verticalAlign=middle;spacingLeft=4;spacingRight=4;overflow=hidden;rotatable=0;points=[[0,0.5],[1,0.5]];portConstraint=eastwest;whiteSpace=wrap;html=1;fontSize=11;" parent="xHtxybSg8a37hnDzmeFo-13" vertex="1">
          <mxGeometry y="118" width="240" height="22" as="geometry" />
        </mxCell>
        <mxCell id="xHtxybSg8a37hnDzmeFo-19" value="+&amp;nbsp;isBalanced(): boolean" style="text;strokeColor=none;fillColor=none;align=left;verticalAlign=middle;spacingLeft=4;spacingRight=4;overflow=hidden;rotatable=0;points=[[0,0.5],[1,0.5]];portConstraint=eastwest;whiteSpace=wrap;html=1;fontSize=11;" parent="xHtxybSg8a37hnDzmeFo-13" vertex="1">
          <mxGeometry y="140" width="240" height="22" as="geometry" />
        </mxCell>
        <mxCell id="xHtxybSg8a37hnDzmeFo-23" value="+&amp;nbsp;toString(): String" style="text;strokeColor=none;fillColor=none;align=left;verticalAlign=middle;spacingLeft=4;spacingRight=4;overflow=hidden;rotatable=0;points=[[0,0.5],[1,0.5]];portConstraint=eastwest;whiteSpace=wrap;html=1;fontSize=11;" parent="xHtxybSg8a37hnDzmeFo-13" vertex="1">
          <mxGeometry y="162" width="240" height="22" as="geometry" />
        </mxCell>
        <mxCell id="LklVr9fy3qKQ77MvSfQL-5" style="edgeStyle=orthogonalEdgeStyle;rounded=0;orthogonalLoop=1;jettySize=auto;html=1;exitX=1;exitY=0.5;exitDx=0;exitDy=0;entryX=0;entryY=0.5;entryDx=0;entryDy=0;" edge="1" parent="WIyWlLk6GJQsqaUBKTNV-1" source="LklVr9fy3qKQ77MvSfQL-0" target="OGeXfidwOHUhbuxbb3Ev-78">
          <mxGeometry relative="1" as="geometry" />
        </mxCell>
        <mxCell id="LklVr9fy3qKQ77MvSfQL-6" style="edgeStyle=orthogonalEdgeStyle;rounded=0;orthogonalLoop=1;jettySize=auto;html=1;exitX=0.25;exitY=0;exitDx=0;exitDy=0;entryX=0.237;entryY=0.997;entryDx=0;entryDy=0;entryPerimeter=0;" edge="1" parent="WIyWlLk6GJQsqaUBKTNV-1" source="OGeXfidwOHUhbuxbb3Ev-52" target="VrE6sZuMcQ_JEsaJTfix-33">
          <mxGeometry relative="1" as="geometry">
            <Array as="points">
              <mxPoint x="100" y="290" />
              <mxPoint x="737" y="290" />
            </Array>
          </mxGeometry>
        </mxCell>
        <mxCell id="LklVr9fy3qKQ77MvSfQL-7" style="edgeStyle=orthogonalEdgeStyle;rounded=0;orthogonalLoop=1;jettySize=auto;html=1;exitX=0.5;exitY=0;exitDx=0;exitDy=0;entryX=0.498;entryY=0.997;entryDx=0;entryDy=0;entryPerimeter=0;" edge="1" parent="WIyWlLk6GJQsqaUBKTNV-1" source="OGeXfidwOHUhbuxbb3Ev-10" target="VrE6sZuMcQ_JEsaJTfix-33">
          <mxGeometry relative="1" as="geometry">
            <Array as="points">
              <mxPoint x="480" y="310" />
              <mxPoint x="800" y="310" />
            </Array>
          </mxGeometry>
        </mxCell>
        <mxCell id="LklVr9fy3qKQ77MvSfQL-9" style="edgeStyle=orthogonalEdgeStyle;rounded=0;orthogonalLoop=1;jettySize=auto;html=1;exitX=0.75;exitY=0;exitDx=0;exitDy=0;entryX=0.75;entryY=1.013;entryDx=0;entryDy=0;entryPerimeter=0;" edge="1" parent="WIyWlLk6GJQsqaUBKTNV-1" source="OGeXfidwOHUhbuxbb3Ev-30" target="VrE6sZuMcQ_JEsaJTfix-33">
          <mxGeometry relative="1" as="geometry" />
        </mxCell>
        <mxCell id="LklVr9fy3qKQ77MvSfQL-10" style="edgeStyle=orthogonalEdgeStyle;rounded=0;orthogonalLoop=1;jettySize=auto;html=1;exitX=0;exitY=0.5;exitDx=0;exitDy=0;entryX=1;entryY=0.5;entryDx=0;entryDy=0;" edge="1" parent="WIyWlLk6GJQsqaUBKTNV-1" source="OGeXfidwOHUhbuxbb3Ev-74" target="OGeXfidwOHUhbuxbb3Ev-78">
          <mxGeometry relative="1" as="geometry" />
        </mxCell>
      </root>
    </mxGraphModel>
  </diagram>
</mxfile>
